<?xml version="1.0" encoding="UTF-8"?>
<svg xmlns="http://www.w3.org/2000/svg" version="1.1" viewBox="0 0 30 30">
  <defs>
    <style>
      .cls-1 {
        fill: #fff;
      }
    </style>
  </defs>
  <!-- Generator: Adobe Illustrator 28.6.0, SVG Export Plug-In . SVG Version: 1.2.0 Build 709)  -->
  <g>
    <g id="Layer_1">
      <g id="Layer_1-2" data-name="Layer_1">
        <g>
          <path class="cls-1" d="M15,6.4011359c.6383848,0,1.2655964.0775394,1.879364.2144608l-2.7173929,2.7175884c-.419014.419014-.419014,1.0981655,0,1.5168304.209507.209507.4839611.3142605.7584152.3142605s.5489082-.1047535.7584152-.3142605l4.5092878-4.5096374c.209507-.2093544.3142605-.4839172.3142605-.7584805,0-.2745194-.1047535-.5489955-.3142605-.7583499L15.6788025.3142604c-.419014-.4190139-1.0978165-.4190139-1.5168304,0-.419014.4186647-.419014,1.0981657,0,1.5168304l2.5654125,2.5654565c-.5679379-.0918775-1.1445189-.1407623-1.7273846-.1407623-5.9245071,0-10.744215,4.8197079-10.744215,10.744215,0,1.284977.2259183,2.5444622.6711206,3.7431908.1606221.4322834.5702081.6994038,1.0056334.6994038.1243076,0,.250361-.0216484.3736205-.0673923.5551934-.2063637.838377-.8240604.6320128-1.3792534-.3565111-.9588432-.5370359-1.9665718-.5370359-2.9959497,0-4.7414923,3.8573723-8.5988636,8.5988636-8.5988631Z"/>
          <path class="cls-1" d="M25.744215,15c0-1.284976-.2259178-2.5444622-.6718197-3.7431908-.2067127-.555892-.8268547-.838377-1.3789043-.6320124-.555542.2067137-.838377.8240604-.6320133,1.3792543.3565102.9591923.5373859,1.9669209.5373859,2.9959497,0,4.7414923-3.8573723,8.5988646-8.5988636,8.5988646-.6385593,0-1.2658587-.0775185-1.8796263-.2144394l2.7176542-2.7176113c.419014-.4186649.419014-1.0981655,0-1.5168304-.419014-.419014-1.0978165-.419014-1.5168304,0l-4.5092888,4.5092888c-.209507.2093544-.3142605.4838295-.3142605.7583504,0,.2745628.1047535.5491257.3142605.7584801l4.5092888,4.5096378c.209507.209507.4839611.3142605.7584152.3142605s.5489082-.1047535.7584152-.3142605c.419014-.4186649.419014-1.0978165,0-1.5168304l-2.5651512-2.5653477c.5678511.0918121,1.1442575.1406536,1.7271233.1406536,5.9245071,0,10.744215-4.8197079,10.744215-10.7442169Z"/>
        </g>
      </g>
    </g>
  </g>
</svg>