<?xml version="1.0" encoding="UTF-8"?>
<svg xmlns="http://www.w3.org/2000/svg" version="1.1" viewBox="0 0 30 30">
  <defs>
    <style>
      .cls-1 {
        fill: #fff;
      }
    </style>
  </defs>
  <!-- Generator: Adobe Illustrator 28.6.0, SVG Export Plug-In . SVG Version: 1.2.0 Build 709)  -->
  <g>
    <g id="Layer_1">
      <g id="Layer_1-2" data-name="Layer_1">
        <path class="cls-1" d="M15.1787803,11.0761096h-7.4396796l5.5076766-5.5079379c.419014-.419014.419014-1.0981658,0-1.5168304-.419014-.419014-1.0978165-.419014-1.5168304,0l-7.3386798,7.3390288c-.209507.2093544-.3142605.4839172-.3142605.758481,0,.2745199.1047535.548995.3142605.7583494l7.3386798,7.3386803c.209507.209507.4839611.3142605.7584152.3142605s.5489082-.1047535.7584152-.3142605c.419014-.4186649.419014-1.0981655,0-1.5168304l-5.5075889-5.5075893h7.4395919c4.7414913,0,8.5988636,3.8573723,8.5988636,8.5988636,0,1.029377-.1805248,2.0371056-.5370369,2.9959488-.2063637.5551929.0768185,1.1728897.6320133,1.3792534.1232605.045742.2493134.0673923.373621.0673923.4354248,0,.8450108-.2671223,1.0056324-.6994038.4452019-1.1987286.6711197-2.4582157.6711197-3.7431908,0-5.9245071-4.8197079-10.744215-10.7442131-10.744215Z"/>
      </g>
    </g>
  </g>
</svg>