<?xml version="1.0" encoding="UTF-8"?>
<svg xmlns="http://www.w3.org/2000/svg" version="1.1" viewBox="0 0 30 30">
  <defs>
    <style>
      .cls-1 {
        fill: #fff;
      }
    </style>
  </defs>
  <!-- Generator: Adobe Illustrator 28.6.0, SVG Export Plug-In . SVG Version: 1.2.0 Build 709)  -->
  <g>
    <g id="Layer_1">
      <g id="Layer_1-2" data-name="Layer_1">
        <g>
          <path class="cls-1" d="M12.5271195,3.2725316c-.4144745-.1599236-.8834209-.0478375-1.1809206.2807393l-5.9831696,6.6064527h-2.6488664c-.5925555,0-1.0726756.4801197-1.0726756,1.0726757v7.5349169c0,.592556.4801201,1.0726757,1.0726756,1.0726757h2.6488664l5.9831696,6.606802c.2074118.2290611.4982777.3526707.7954283.3526707.1291962,0,.2601376-.0233955.3854933-.0719299.4137764-.1595745.6868334-.5572891.6868334-1.0007458V4.2732765c0-.4434564-.273057-.8411703-.6868343-1.0007448ZM11.0686014,22.9441885l-4.4349132-4.8968754c-.2032218-.2245216-.491992-.3526707-.7950788-.3526707h-2.0517714v-5.3895664h2.0517714c.3030868,0,.591857-.1281481.7950788-.3526697l4.4349132-4.8968759v15.888658Z"/>
          <path class="cls-1" d="M24.3003634,15.0000109l3.7508736-3.7511997c.419014-.419014.419014-1.0981655,0-1.5168304-.419014-.419014-1.0978165-.419014-1.5168304,0l-3.7508736,3.7511997-3.7512226-3.7511997c-.419014-.419014-1.0978165-.419014-1.5168304,0-.419014.4186649-.419014,1.0981655,0,1.5168304l3.7512226,3.7511997-3.7512226,3.7508945c-.419014.4186649-.419014,1.0978165,0,1.5168304.209507.209507.4839611.3142605.7584152.3142605s.5489082-.1047535.7584152-.3142605l3.7512226-3.7508945,3.7508736,3.7508945c.209507.209507.4839611.3142605.7584152.3142605s.5489082-.1047535.7584152-.3142605c.419014-.4186649.419014-1.0981655,0-1.5168304l-3.7508736-3.7508945Z"/>
        </g>
      </g>
    </g>
  </g>
</svg>