<?xml version="1.0" encoding="UTF-8"?>
<svg xmlns="http://www.w3.org/2000/svg" version="1.1" viewBox="0 0 30 30">
  <defs>
    <style>
      .cls-1 {
        fill: #fff;
      }
    </style>
  </defs>
  <!-- Generator: Adobe Illustrator 28.6.0, SVG Export Plug-In . SVG Version: 1.2.0 Build 709)  -->
  <g>
    <g id="Layer_1">
      <g id="Layer_1-2" data-name="Layer_1">
        <g>
          <g>
            <g>
              <path class="cls-1" d="M28.3300552,16.573082c-.0673923,0-.136179-.0066347-.2049675-.0199032-.5817318-.1127844-.9616375-.6753111-.8492012-1.2570419.6822948-3.5246058-.0233955-7.1040316-1.9878712-10.079031-.3261318-.4944365-.1903019-1.1599703.3041344-1.4864519.4958324-.3261325,1.1599693-.1896038,1.4864521.3041344,2.2752457,3.4460404,3.0933704,7.5904377,2.3035297,11.6691883-.0991669.5125933-.5485592.8691044-1.0520763.8691053Z"/>
              <path class="cls-1" d="M21.8018188,15.3031207c-.0673923,0-.136179-.0066347-.2049675-.0199032-.5817318-.1127844-.9619865-.6756601-.8492012-1.2570419.3491783-1.8028078-.0108242-3.6321526-1.0136642-5.1507287-.3261318-.4944363-.1903019-1.1599703.3041344-1.4864516.4947853-.3264818,1.1603203-.1896038,1.4864521.3041344,1.3136082,1.9899664,1.786047,4.3839331,1.3293209,6.7408857-.0995159.5129433-.5485592.8691044-1.0520744.8691053Z"/>
            </g>
            <g>
              <path class="cls-1" d="M1.6699451,16.573082c-.5035151,0-.9529075-.3561621-1.0520741-.8691044-.7898412-4.0787506.0282834-8.2231483,2.303529-11.6691885.3264818-.4937382.991317-.6302667,1.4864521-.3041344.4944363.3264818.6302667.9920154.3041344,1.4864521-1.9644771,2.9749985-2.6701663,6.5544252-1.9878719,10.079031.1124353.5817308-.2674706,1.1442575-.8492014,1.2570419-.0687881.0132685-.1375762.0199032-.2049681.0199022Z"/>
              <path class="cls-1" d="M8.1981821,15.3031207c-.5035152,0-.9525585-.3561621-1.052074-.8691044-.4567251-2.3569536.0157132-4.7509193,1.3293214-6.7408862.3268309-.4937382.9920158-.6306162,1.4864521-.3041344s.6302671.9920154.3041344,1.4864516c-1.00284,1.5185766-1.3628426,3.3479214-1.0136642,5.1507292.1127844.5813818-.2674704,1.1442575-.8492012,1.2570419-.0687885.0132685-.1375761.0199032-.2049685.0199022Z"/>
            </g>
          </g>
          <path class="cls-1" d="M11.0963612,26.7994653c-.1019602,0-.2056656-.0146656-.3083248-.045393-.5674143-.1700497-.8897066-.7681923-.719656-1.3356075l3.9038124-13.0281906c.1361799-.4539318.5537968-.7646999,1.0276318-.7646999s.8914518.3107691,1.0276318.7646999l3.9041615,13.0281906c.1232605.4120312-.0111732.8575821-.3414955,1.1327343-.3303223.2744541-.7933331.3268318-1.176033.1295452l-5.6200237-2.8845615-.6704226,2.2382336c-.1393223.464756-.5656691.765049-1.0272818.765049ZM13.4204922,21.7060014l3.7330647,1.9162903-2.1537313-7.1871357-1.5793333,5.2708454Z"/>
        </g>
      </g>
    </g>
  </g>
</svg>