<?xml version="1.0" encoding="UTF-8"?>
<svg xmlns="http://www.w3.org/2000/svg" version="1.1" viewBox="0 0 30 30">
  <defs>
    <style>
      .cls-1 {
        fill: #fff;
      }
    </style>
  </defs>
  <!-- Generator: Adobe Illustrator 28.6.0, SVG Export Plug-In . SVG Version: 1.2.0 Build 709)  -->
  <g>
    <g id="Layer_1">
      <g id="Layer_1-2" data-name="Layer_1">
        <path class="cls-1" d="M25.0657616,11.254714c-.2067127-.5555429-.8233624-.8369799-1.3796024-.6309652-.5551929.2067137-.8376789.8244095-.6309643,1.3796034.3607006.9689693.5436707,1.977397.5436707,2.9966478,0,4.7414913-3.8573723,8.5988636-8.5988636,8.5988636s-8.5988636-3.8573723-8.5988636-8.5988636,3.8573723-8.5988636,8.5988636-8.5988636c.638298,0,1.2655087.0775394,1.8792782.2144389l-2.7176542,2.7176108c-.419014.4186649-.419014,1.0981655,0,1.5168304.209507.209507.4839611.3142605.7584152.3142605s.5489082-.1047535.7584152-.3142605l4.5096369-4.5096374c.209507-.2093544.3142605-.4839172.3142605-.7584805,0-.2745194-.1047535-.5489955-.3142605-.7583499L15.6784534.3142604c-.419014-.4190139-1.0978165-.4190139-1.5168304,0s-.419014,1.0981657,0,1.5168304l2.565588,2.5654126c-.5679379-.0918555-1.1444321-.1407189-1.72721-.1407189-5.9245081,0-10.744215,4.8197074-10.744215,10.7442155s4.8197069,10.744215,10.744215,10.744215,10.744216-4.8197079,10.744216-10.744215c0-1.275548-.228363-2.5357323-.6784554-3.745286Z"/>
      </g>
    </g>
  </g>
</svg>