<?xml version="1.0" encoding="UTF-8"?>
<svg xmlns="http://www.w3.org/2000/svg" version="1.1" viewBox="0 0 30 30">
  <defs>
    <style>
      .cls-1 {
        fill: #fff;
      }
    </style>
  </defs>
  <!-- Generator: Adobe Illustrator 28.6.0, SVG Export Plug-In . SVG Version: 1.2.0 Build 709)  -->
  <g>
    <g id="Layer_1">
      <g id="Layer_1-2" data-name="Layer_1">
        <g>
          <path class="cls-1" d="M4.2499993,9.8499992h2.0999999c.5,2.1999998,2.4999995,3.9000006,4.9000001,3.9000006s4.4000006-1.6999998,4.9000006-3.8999996h9.6000004c.6000004,0,1.1000004-.5,1.1000004-1.0999999s-.5-1.0999999-1.1000004-1.0999999h-9.6000004c-.5-2.1999998-2.5-3.9000001-4.8999996-3.9000001s-4.4000001,1.7000003-4.9000001,3.9000001h-2.0999999c-.5999999,0-1.0999999.5-1.0999999,1.0999999s.5,1.0999999,1.099999,1.099999ZM11.1499989,5.8499992c1.6000004,0,2.9000006,1.3000002,2.9000006,2.9000001s-1.3000002,2.9000001-2.8999996,2.9000001-2.8999996-1.3000002-2.8999996-2.9000001,1.3000002-2.9000001,2.8999987-2.9000001Z"/>
          <path class="cls-1" d="M25.6499999,20.1499994h-2.1000004c-.5-2.2000008-2.5-3.8999996-4.8999996-3.8999996s-4.3999996,1.7000008-4.8999996,3.8999996H4.2499993c-.5999999,0-1.0999999.5-1.0999999,1.1000004s.5,1.1000004,1.0999999,1.1000004h9.6000004c.5,2.2000008,2.500001,3.8999996,4.9000006,3.8999996s4.3999996-1.7000008,4.8999996-3.8999996h2.1000004c.6000004,0,1.1000004-.5,1.1000004-1.1000004s-.5-1.1000004-1.1000004-1.1000004h-.1000004ZM18.7499983,24.1499994c-1.6000004,0-2.8999996-1.2999992-2.8999996-2.8999996s1.2999992-2.8999996,2.8999996-2.8999996,2.8999996,1.2999992,2.8999996,2.8999996-1.2999992,2.8999996-2.8999996,2.8999996Z"/>
        </g>
      </g>
    </g>
  </g>
</svg>