<?xml version="1.0" encoding="UTF-8"?>
<svg xmlns="http://www.w3.org/2000/svg" version="1.1" viewBox="0 0 30 30">
  <defs>
    <style>
      .cls-1 {
        fill: #fff;
      }
    </style>
  </defs>
  <!-- Generator: Adobe Illustrator 28.6.0, SVG Export Plug-In . SVG Version: 1.2.0 Build 709)  -->
  <g>
    <g id="Layer_1">
      <g id="Layer_1-2" data-name="Layer_1">
        <g>
          <path class="cls-1" d="M15.0001742,25.7389774c-2.7515249,0-5.5030489-1.0471859-7.5974207-3.1419067-4.1890917-4.1890926-4.1890917-11.0054007,0-15.1944923.419014-.419014,1.0978165-.419014,1.5168304,0,.419014.4186649.419014,1.0981655,0,1.5168304-1.6240282,1.6243773-2.5186229,3.7836952-2.5186229,6.0802412,0,2.296895.8945947,4.456214,2.5186229,6.0805902,1.6243773,1.6240273,3.7836952,2.5186234,6.0802412,2.5186234,2.296895,0,4.456214-.8945942,6.0805902-2.5186234,3.3524609-3.3528099,3.3524609-8.8080215,0-12.1608315-.419014-.4186649-.419014-1.0981655,0-1.5168304.419014-.419014,1.0978165-.419014,1.5168304,0,4.1890926,4.1890917,4.1890926,11.0053997,0,15.1944923-2.0943718,2.0947208-4.8458958,3.1419067-7.5970716,3.1419067Z"/>
          <path class="cls-1" d="M15.0001742,11.1642771c-.592555,0-1.0726757-.4801197-1.0726757-1.0726757V1.0726756C13.9274985.4801201,14.4076191,0,15.0001742,0s1.0726748.4801201,1.0726748,1.0726756v9.0189258c0,.592555-.4801197,1.0726757-1.0726748,1.0726757Z"/>
        </g>
      </g>
    </g>
  </g>
</svg>