<?xml version="1.0" encoding="UTF-8"?>
<svg xmlns="http://www.w3.org/2000/svg" version="1.1" viewBox="0 0 30 30">
  <defs>
    <style>
      .cls-1 {
        fill: #fff;
      }
    </style>
  </defs>
  <!-- Generator: Adobe Illustrator 28.6.0, SVG Export Plug-In . SVG Version: 1.2.0 Build 709)  -->
  <g>
    <g id="Layer_1">
      <g id="Layer_1-2" data-name="Layer_1">
        <g>
          <path class="cls-1" d="M12.1416271,26.7994653c-.2974997,0-.5880165-.1236095-.7954283-.3526707l-5.9828205-6.606802h-2.6492155c-.5925555,0-1.0726756-.4801197-1.0726756-1.0726757v-7.5349178c0-.592556.4801201-1.0726757,1.0726756-1.0726757h2.6492155l5.9828205-6.6064529c.2978487-.3285768.7660971-.4406631,1.1809206-.2807393.4137764.1595745.6868334.5572886.6868334,1.0007448v21.4535117c0,.4434566-.273057.8411713-.6868334,1.0007458-.1253548.0485363-.2562971.0719299-.3854923.0719318ZM3.7868391,17.6946431h2.0521204c.3030868,0,.591857.128149.7950788.3526707l4.4345641,4.8968754V7.0558787l-4.4345641,4.8965273c-.2032218.2245216-.491992.3526697-.7950788.3526697h-2.0521207s0,5.3895674.0000002,5.3895674Z"/>
          <g>
            <path class="cls-1" d="M22.9961823,26.4464455c-.2744541,0-.5489082-.1047535-.7584152-.3142605-.419014-.4186649-.419014-1.0981655,0-1.5168304,5.3019218-5.3019218,5.3019218-13.9290705,0-19.2309933-.419014-.4186647-.419014-1.0981658,0-1.5168304.419014-.419014,1.0978165-.419014,1.5168304,0,6.1385536,6.1382046,6.1385536,16.1264496,0,22.2646542-.209507.209507-.4839611.3142605-.7584152.3142605Z"/>
            <path class="cls-1" d="M18.2941483,21.7447606c-.2744541,0-.5489082-.1047535-.7584152-.3142605-.419014-.4186649-.419014-1.0981655,0-1.5168304,1.312561-1.312561,2.0353603-3.0577545,2.0353603-4.9136372,0-1.8562317-.7227993-3.6010752-2.0353603-4.9136372-.419014-.4186649-.419014-1.0978165,0-1.5168304.4183159-.419014,1.0978165-.419014,1.5168304,0,1.7179565,1.7176075,2.6638813,4.0012341,2.6638813,6.4304676,0,2.4288845-.9459248,4.7128601-2.6638813,6.4304676-.209507.209507-.4839611.3142605-.7584152.3142605Z"/>
          </g>
        </g>
      </g>
    </g>
  </g>
</svg>